<?xml version="1.0" encoding="UTF-8" standalone="no"?>
<!-- Created with Inkscape (http://www.inkscape.org/) -->

<svg
   version="1.1"
   id="svg9232"
   width="200"
   height="165"
   viewBox="0 0 200 165"
   sodipodi:docname="dog4.svg"
   inkscape:version="1.2.1 (9c6d41e410, 2022-07-14)"
   xmlns:inkscape="http://www.inkscape.org/namespaces/inkscape"
   xmlns:sodipodi="http://sodipodi.sourceforge.net/DTD/sodipodi-0.dtd"
   xmlns="http://www.w3.org/2000/svg"
   xmlns:svg="http://www.w3.org/2000/svg">
  <defs
     id="defs9236" />
  <sodipodi:namedview
     id="namedview9234"
     pagecolor="#ffffff"
     bordercolor="#000000"
     borderopacity="0.25"
     inkscape:showpageshadow="2"
     inkscape:pageopacity="0.0"
     inkscape:pagecheckerboard="0"
     inkscape:deskcolor="#d1d1d1"
     showgrid="false"
     inkscape:zoom="2.36"
     inkscape:cx="133.68644"
     inkscape:cy="128.81356"
     inkscape:window-width="1440"
     inkscape:window-height="837"
     inkscape:window-x="-4"
     inkscape:window-y="-4"
     inkscape:window-maximized="1"
     inkscape:current-layer="g9238" />
  <g
     inkscape:groupmode="layer"
     inkscape:label="Image"
     id="g9238">
    <path
       id="path10474"
       style="fill:#ffffff;stroke-width:1.28814"
       d="M 149.83594 38.796875 C 149.34541 38.796875 145.07891 45.592002 140.35352 53.898438 L 131.76172 69.001953 L 134.00781 70.644531 C 135.24373 71.548257 136.67552 72.289062 137.18945 72.289062 C 137.70336 72.289062 142.01026 65.519759 146.75977 57.248047 L 155.39453 42.208984 L 153.06055 40.501953 C 151.77714 39.563505 150.32646 38.796875 149.83594 38.796875 z M 107.92188 50.335938 L 92.076172 68.195312 L 76.230469 86.054688 L 68.962891 84.34375 C 64.965385 83.402833 61.02783 82.624361 60.212891 82.613281 C 59.172932 82.599158 59.403067 85.203947 60.984375 91.351562 L 63.238281 100.11133 L 59.59375 104.47461 C 57.590142 106.87461 56.24062 109.12735 56.59375 109.48047 C 56.94687 109.83359 67.802673 114.62682 80.71875 120.13086 C 93.634817 125.63488 104.58174 130.16321 105.04492 130.19531 C 105.50812 130.22742 111.23764 124.31263 117.77734 117.05078 L 129.66797 103.84766 L 121.13672 103.20312 L 112.60547 102.55859 L 119.51172 90.451172 L 126.41797 78.34375 L 118.70117 65.976562 C 114.45679 59.174862 110.29515 52.872986 109.45312 51.972656 L 107.92188 50.335938 z M 174.60156 63.117188 L 160.65625 71.144531 C 152.98679 75.560191 146.23014 79.585309 145.64062 80.087891 C 145.0511 80.590475 145.33523 82.230098 146.27344 83.732422 C 147.21167 85.234745 148.30346 86.317639 148.69922 86.138672 C 149.09497 85.959706 155.91135 82.137233 163.8457 77.644531 C 171.78008 73.151831 178.27148 68.731536 178.27148 67.820312 C 178.27148 66.909089 177.4449 65.478301 176.43555 64.640625 L 174.60156 63.117188 z M 92.837891 81.779297 L 95.216797 82.925781 L 96.970703 84.802734 L 97.097656 87.523438 C 97.184876 89.371522 94.140927 91.814323 92.798828 92.265625 C 91.765579 92.613073 90.021979 92.059092 88.837891 90.875 C 87.653802 89.69091 86.857803 87.846533 87.070312 86.777344 C 87.282812 85.708156 88.874368 82.29384 90.816406 82.041016 L 92.837891 81.779297 z M 151.2207 96.763672 L 151.2207 99.982422 L 151.2207 103.20312 L 169.25391 103.20312 L 187.28906 103.20312 L 187.28906 99.982422 L 187.28906 96.763672 L 169.25391 96.763672 L 151.2207 96.763672 z M 0.42382812 117.37305 L 0.42382812 165.67773 L 98.285156 165.67773 L 98.121094 157.29492 L 97.763672 139.01562 L 72.197266 128.19336 L 46.630859 117.37305 L 2.8984375 117.37305 L 0.42382812 117.37305 z " />
  </g>
</svg>
